<svg width="22" height="22" viewBox="0 0 22 22" fill="none" xmlns="http://www.w3.org/2000/svg">
<g clip-path="url(#clip0)">
<path d="M16.045 0H5.9552C2.67145 0 0 2.67144 0 5.95519V16.0448C0 19.3285 2.67145 22 5.9552 22H16.045C19.3286 22 22 19.3285 22 16.0448V5.95519C22 2.67144 19.3286 0 16.045 0ZM20.7103 16.0448C20.7103 18.6173 18.6174 20.7102 16.045 20.7102H5.9552C3.38261 20.7102 1.28973 18.6173 1.28973 16.0448V5.95519C1.28973 3.38261 3.38261 1.28973 5.9552 1.28973H16.045C18.6174 1.28973 20.7103 3.38261 20.7103 5.95519V16.0448Z" fill="#1C0B05"/>
<path d="M9.41676 10.6679C10.1231 10.3604 10.4765 9.69959 10.4765 8.68547C10.4765 7.22269 9.64117 6.49121 7.97043 6.49121H5.56418C5.37283 6.49121 5.20667 6.53687 5.06551 6.62834C4.92401 6.71982 4.85352 6.84453 4.85352 7.0023V15.1063C4.85352 15.2394 4.91998 15.3557 5.05309 15.4554C5.18585 15.5551 5.35638 15.6049 5.56418 15.6049H8.20743C8.97197 15.6049 9.57874 15.3951 10.0277 14.9753C10.4765 14.5557 10.701 13.8845 10.701 12.9619V12.7C10.701 12.1183 10.5927 11.6756 10.3767 11.3722C10.1605 11.0689 9.84058 10.8342 9.41676 10.6679ZM6.46182 7.91253H7.84572C8.16161 7.91253 8.40884 8.00602 8.5876 8.19301C8.76619 8.37999 8.85565 8.63562 8.85565 8.95973C8.85565 9.29223 8.77039 9.55407 8.60002 9.74525C8.42966 9.93642 8.18242 10.0319 7.85831 10.0319H6.46182V7.91253ZM9.08006 12.8247C9.08006 13.7308 8.6769 14.1838 7.87073 14.1838H6.46182V11.3037H7.87073C8.2697 11.3037 8.57082 11.4078 8.77458 11.6154C8.97818 11.8232 9.08006 12.1599 9.08006 12.6253V12.8247Z" fill="#1C0B05"/>
<path d="M16.3982 13.0615C16.5726 13.0615 16.7139 13.0533 16.822 13.0368C16.93 13.0204 17.0485 12.9791 17.1774 12.9133C17.3061 12.8475 17.4018 12.7342 17.4641 12.5738C17.5265 12.4133 17.5577 12.2097 17.5577 11.9626C17.5577 11.2864 17.3061 10.7248 16.8034 10.2781C16.3004 9.83148 15.6956 9.60791 14.9893 9.60791C14.2328 9.60791 13.5886 9.8533 13.0567 10.3436C12.5248 10.834 12.2588 11.4201 12.2588 12.1016V13.1612C12.2588 13.9261 12.5394 14.5433 13.1004 15.0127C13.6615 15.4824 14.3866 15.7172 15.276 15.7172C15.8994 15.7172 16.4209 15.603 16.8407 15.3743C17.2603 15.1458 17.4704 14.915 17.4704 14.6822C17.4704 14.5327 17.4122 14.3768 17.2959 14.2148C17.1794 14.0526 17.034 13.9716 16.8595 13.9716C16.7678 13.9716 16.5684 14.0508 16.2609 14.2086C15.9534 14.3665 15.6417 14.4454 15.3259 14.4454C14.8853 14.4454 14.5321 14.3353 14.2662 14.1151C14 13.8949 13.8673 13.606 13.8673 13.2485V13.0615H16.3982ZM13.8673 11.7879C13.8673 11.5163 13.9752 11.2969 14.1914 11.1301C14.4074 10.9633 14.6608 10.8797 14.9519 10.8797C15.2592 10.8797 15.5192 10.9653 15.7312 11.1358C15.943 11.3067 16.0491 11.5281 16.0491 11.7996C16.0491 11.9239 16.0219 12.0073 15.968 12.0499C15.9138 12.0927 15.8203 12.114 15.6876 12.114H13.8673V11.7879Z" fill="#1C0B05"/>
<path d="M16.946 7.64258H12.9126C12.5564 7.64258 12.2676 7.93144 12.2676 8.28744C12.2676 8.64361 12.5564 8.93248 12.9126 8.93248H16.946C17.3021 8.93248 17.591 8.64361 17.591 8.28744C17.591 7.93144 17.3021 7.64258 16.946 7.64258Z" fill="#1C0B05"/>
</g>
<defs>
<clipPath id="clip0">
<rect width="22" height="22" fill="white"/>
</clipPath>
</defs>
</svg>
