<svg width="22" height="22" viewBox="0 0 22 22" fill="none" xmlns="http://www.w3.org/2000/svg">
<g clip-path="url(#clip0)">
<path d="M5.68732 6.51514H1.97858C1.56282 6.51514 1.22461 6.85335 1.22461 7.2691V21.2462C1.22461 21.6618 1.56282 22 1.97858 22H5.68732C6.10291 22 6.44112 21.6618 6.44112 21.2462V7.2691C6.44112 6.85335 6.10291 6.51514 5.68732 6.51514ZM5.15021 20.7091H2.51552V7.80604H5.15021V20.7091Z" fill="#1C0B05"/>
<path d="M3.83295 0C2.38275 0 1.20312 1.17962 1.20312 2.62965C1.20312 4.07984 2.38275 5.25947 3.83295 5.25947C5.28281 5.25947 6.4626 4.07984 6.4626 2.62965C6.4626 1.17962 5.28297 0 3.83295 0ZM3.83295 3.96856C3.09459 3.96856 2.49403 3.36801 2.49403 2.62965C2.49403 1.89146 3.09459 1.29091 3.83295 1.29091C4.57114 1.29091 5.17169 1.89146 5.17169 2.62965C5.17169 3.36784 4.57114 3.96856 3.83295 3.96856Z" fill="#1C0B05"/>
<path d="M18.4355 8.15365C17.5489 7.41362 16.4218 7.01784 15.263 7.03932C14.5433 7.05258 13.84 7.22613 13.2027 7.54034V7.2352C13.2027 6.83757 12.8802 6.51514 12.4826 6.51514H8.70639C8.30876 6.51514 7.98633 6.83757 7.98633 7.2352V21.2797C7.98633 21.6775 8.30876 21.9998 8.70639 21.9998H12.5571C12.9136 21.9998 13.2027 21.7108 13.2027 21.3544V12.9807C13.2027 12.2639 13.7636 11.6573 14.48 11.636C15.2245 11.614 15.8372 12.213 15.8372 12.9527V21.3679C15.8372 21.7168 16.1202 21.9998 16.4691 21.9998H20.17C20.5189 21.9998 20.8019 21.7168 20.8019 21.3679V13.2087C20.8019 11.2516 19.9394 9.40898 18.4355 8.15365ZM19.511 20.7089H17.1283V12.9527C17.1283 11.5146 15.9582 10.3446 14.5199 10.3446C13.0818 10.3446 11.9118 11.5146 11.9118 12.9527V20.7089H9.27724V7.80588H11.9118V8.74397H11.9126C11.9124 8.89604 11.9653 9.04878 12.0741 9.17181C12.3102 9.43868 12.7183 9.46353 12.9851 9.2272C13.6211 8.66424 14.4385 8.34567 15.2868 8.32989C16.136 8.31378 16.9601 8.60348 17.6083 9.14462C18.8176 10.154 19.511 11.6353 19.511 13.2087V20.7089Z" fill="#1C0B05"/>
</g>
<defs>
<clipPath id="clip0">
<rect width="22" height="22" fill="white"/>
</clipPath>
</defs>
</svg>
