<svg width="30" height="26" viewBox="0 0 30 26" fill="none" xmlns="http://www.w3.org/2000/svg">
<path d="M29.0909 3.10629C29.5922 3.10629 30 2.69848 30 2.19715V1.25777C30 0.756445 29.5922 0.348633 29.0909 0.348633H0.909141C0.407813 0.348633 0 0.756445 0 1.25777V2.19715C0 2.69848 0.407813 3.10629 0.909141 3.10629H0.939375V21.0152H0.439453C0.196758 21.0152 0 21.212 0 21.4547C0 21.6974 0.196758 21.8941 0.439453 21.8941H14.5605V22.9662C14.0152 23.1502 13.6212 23.6662 13.6212 24.2729C13.6212 25.0332 14.2397 25.6517 15 25.6517C15.7603 25.6517 16.3788 25.0331 16.3788 24.2729C16.3788 23.6663 15.9848 23.1502 15.4395 22.9662V21.8941H29.5605C29.8032 21.8941 30 21.6974 30 21.4547C30 21.212 29.8032 21.0152 29.5605 21.0152H29.0606V3.10629H29.0909ZM15 24.7727C14.7243 24.7727 14.5001 24.5484 14.5001 24.2728C14.5001 23.9972 14.7244 23.7729 15 23.7729C15.2756 23.7729 15.4999 23.9972 15.4999 24.2728C15.4999 24.5484 15.2757 24.7727 15 24.7727ZM28.1817 21.0152H1.81828V3.10629H25.8029C26.0456 3.10629 26.2424 2.90953 26.2424 2.66684C26.2424 2.42414 26.0456 2.22738 25.8029 2.22738H0.909141C0.892441 2.22738 0.878906 2.21385 0.878906 2.19715V1.25777C0.878906 1.24107 0.892441 1.22754 0.909141 1.22754H29.0909C29.1076 1.22754 29.1211 1.24107 29.1211 1.25777V2.19715C29.1211 2.21385 29.1076 2.22738 29.0909 2.22738H27.6819C27.4392 2.22738 27.2424 2.42414 27.2424 2.66684C27.2424 2.90953 27.4392 3.10629 27.6819 3.10629H28.1817V21.0152Z" fill="black"/>
<path d="M4.66699 12.9697H5.60619C5.84889 12.9697 6.04564 12.773 6.04564 12.5303C6.04564 12.2876 5.84889 12.0908 5.60619 12.0908H5.10645V11.091H8.92453V12.0908H7.48506C7.24236 12.0908 7.04561 12.2876 7.04561 12.5303C7.04561 12.773 7.24236 12.9697 7.48506 12.9697H9.36393C9.60662 12.9697 9.80338 12.773 9.80338 12.5303V10.6515C9.80338 10.4088 9.60662 10.2121 9.36393 10.2121H7.45488V9.21223H14.5305C14.7732 9.21223 14.97 9.01547 14.97 8.77277V5.95459C14.97 5.71189 14.7732 5.51514 14.5305 5.51514H4.66699C4.4243 5.51514 4.22754 5.71189 4.22754 5.95459V8.77277C4.22754 9.01547 4.4243 9.21223 4.66699 9.21223H6.57604V10.2121H4.66699C4.4243 10.2121 4.22754 10.4088 4.22754 10.6515V12.5303C4.22754 12.773 4.4243 12.9697 4.66699 12.9697ZM5.10645 6.39398H14.0912V8.33326H5.10645V6.39398Z" fill="black"/>
<path d="M25.3337 11.1519H22.5156C22.2729 11.1519 22.0761 11.3486 22.0761 11.5913V13.4701C22.0761 13.7128 22.2729 13.9095 22.5156 13.9095H23.4852V14.9094H21.1064C20.8637 14.9094 20.667 15.1061 20.667 15.3488V18.167C20.667 18.4097 20.8637 18.6064 21.1064 18.6064H25.3337C25.5764 18.6064 25.7732 18.4097 25.7732 18.167V15.3488C25.7732 15.1061 25.5764 14.9094 25.3337 14.9094H24.3641V13.9095H25.3337C25.5764 13.9095 25.7732 13.7128 25.7732 13.4701V11.5913C25.7732 11.3486 25.5764 11.1519 25.3337 11.1519ZM24.8943 17.7275H21.5459V15.7883H24.8943V17.7275ZM24.8943 13.0306H22.955V12.0308H24.8943V13.0306Z" fill="black"/>
<path d="M25.023 5.17408L22.9853 7.21186L21.8869 6.11352C21.7153 5.94189 21.437 5.94189 21.2654 6.11352C21.0938 6.28514 21.0938 6.5634 21.2654 6.73496L22.6746 8.14402C22.7603 8.2298 22.8728 8.27275 22.9853 8.27275C23.0977 8.27275 23.2102 8.22986 23.296 8.14402L25.6445 5.79553C25.8161 5.62391 25.8161 5.34564 25.6445 5.17408C25.4728 5.00252 25.1946 5.00252 25.023 5.17408Z" fill="black"/>
<path d="M20.9473 8.46223C20.8382 8.35312 20.6798 8.30918 20.53 8.34662L17.873 9.01084C17.6376 9.06967 17.4944 9.30832 17.5533 9.54375C17.6121 9.77924 17.8507 9.92238 18.0862 9.8635L19.204 9.58406L12.6968 16.0913C12.2475 16.5406 11.6502 16.788 11.0148 16.788H7.40164C7.20389 15.9802 6.47416 15.3789 5.60633 15.3789C4.58703 15.3789 3.75781 16.2081 3.75781 17.2274C3.75781 18.2467 4.58703 19.076 5.60633 19.076C6.47422 19.076 7.20389 18.4747 7.40164 17.6669H11.0148C11.8849 17.6669 12.703 17.3281 13.3183 16.7128L19.8254 10.2055L19.546 11.3233C19.4871 11.5587 19.6303 11.7973 19.8658 11.8562C19.9015 11.8652 19.9374 11.8695 19.9727 11.8695C20.1696 11.8695 20.3487 11.7362 20.3987 11.5365L21.0629 8.87947C21.1003 8.72976 21.0564 8.57139 20.9473 8.46223ZM5.60633 18.1971C5.07166 18.1971 4.63672 17.7621 4.63672 17.2274C4.63672 16.6928 5.07166 16.2578 5.60633 16.2578C6.141 16.2578 6.57594 16.6928 6.57594 17.2274C6.57594 17.7621 6.141 18.1971 5.60633 18.1971Z" fill="black"/>
<path d="M14.9695 10.6519C14.9695 10.4092 14.7728 10.2124 14.5301 10.2124H11.2422C10.9995 10.2124 10.8027 10.4092 10.8027 10.6519C10.8027 10.8946 10.9995 11.0913 11.2422 11.0913H14.5301C14.7728 11.0913 14.9695 10.8946 14.9695 10.6519Z" fill="black"/>
<path d="M11.2422 12.0913C10.9995 12.0913 10.8027 12.2881 10.8027 12.5308C10.8027 12.7735 10.9995 12.9702 11.2422 12.9702H12.6512C12.8939 12.9702 13.0907 12.7735 13.0907 12.5308C13.0907 12.2881 12.8939 12.0913 12.6512 12.0913H11.2422Z" fill="black"/>
<path d="M19.2274 15.3789H17.8184C17.5757 15.3789 17.3789 15.5757 17.3789 15.8184C17.3789 16.0611 17.5757 16.2578 17.8184 16.2578H19.2274C19.4701 16.2578 19.6669 16.0611 19.6669 15.8184C19.6669 15.5757 19.4701 15.3789 19.2274 15.3789Z" fill="black"/>
<path d="M19.2273 17.2573H15.9395C15.6968 17.2573 15.5 17.4541 15.5 17.6968C15.5 17.9395 15.6968 18.1362 15.9395 18.1362H19.2273C19.47 18.1362 19.6668 17.9395 19.6668 17.6968C19.6668 17.4541 19.47 17.2573 19.2273 17.2573Z" fill="black"/>
</svg>
