<svg width="59" height="59" viewBox="0 0 59 59" fill="none" xmlns="http://www.w3.org/2000/svg">
<path d="M57.212 10.042C58.198 10.042 59 9.24001 59 8.25407V6.40663C59 5.42068 58.198 4.61865 57.212 4.61865H1.78798C0.802031 4.61865 0 5.42068 0 6.40663V8.25407C0 9.24001 0.802031 10.042 1.78798 10.042H1.84744V45.263H0.864258C0.386957 45.263 0 45.6499 0 46.1272C0 46.6045 0.386957 46.9915 0.864258 46.9915H28.6357V49.0999C27.5631 49.4617 26.7883 50.4765 26.7883 51.6697C26.7883 53.1649 28.0048 54.3814 29.5 54.3814C30.9952 54.3814 32.2117 53.1648 32.2117 51.6697C32.2117 50.4766 31.4369 49.4618 30.3643 49.0999V46.9915H58.1357C58.613 46.9915 59 46.6045 59 46.1272C59 45.6499 58.613 45.263 58.1357 45.263H57.1526V10.042H57.212ZM29.5 52.6527C28.9578 52.6527 28.5168 52.2116 28.5168 51.6695C28.5168 51.1275 28.9579 50.6864 29.5 50.6864C30.0421 50.6864 30.4832 51.1275 30.4832 51.6695C30.4832 52.2116 30.0422 52.6527 29.5 52.6527ZM55.424 45.263H3.57595V10.042H50.7458C51.2231 10.042 51.61 9.65509 51.61 9.17778C51.61 8.70048 51.2231 8.31353 50.7458 8.31353H1.78798C1.75513 8.31353 1.72852 8.28691 1.72852 8.25407V6.40663C1.72852 6.37379 1.75513 6.34717 1.78798 6.34717H57.212C57.2449 6.34717 57.2715 6.37379 57.2715 6.40663V8.25407C57.2715 8.28691 57.2449 8.31353 57.212 8.31353H54.441C53.9637 8.31353 53.5767 8.70048 53.5767 9.17778C53.5767 9.65509 53.9637 10.042 54.441 10.042H55.424V45.263Z" fill="white"/>
<path d="M9.17773 29.4402H11.0248C11.5021 29.4402 11.8891 29.0533 11.8891 28.576C11.8891 28.0987 11.5021 27.7117 11.0248 27.7117H10.042V25.7454H17.5509V27.7117H14.7199C14.2426 27.7117 13.8557 28.0987 13.8557 28.576C13.8557 29.0533 14.2426 29.4402 14.7199 29.4402H18.415C18.8923 29.4402 19.2793 29.0533 19.2793 28.576V24.8811C19.2793 24.4038 18.8923 24.0168 18.415 24.0168H14.6606V22.0505H28.5761C29.0534 22.0505 29.4403 21.6635 29.4403 21.1862V15.6438C29.4403 15.1665 29.0534 14.7795 28.5761 14.7795H9.17773C8.70043 14.7795 8.31348 15.1665 8.31348 15.6438V21.1862C8.31348 21.6635 8.70043 22.0505 9.17773 22.0505H12.9322V24.0168H9.17773C8.70043 24.0168 8.31348 24.4038 8.31348 24.8811V28.576C8.31348 29.0533 8.70043 29.4402 9.17773 29.4402ZM10.042 16.5079H27.7119V20.3219H10.042V16.5079Z" fill="white"/>
<path d="M49.822 25.8645H44.2796C43.8023 25.8645 43.4153 26.2515 43.4153 26.7288V30.4236C43.4153 30.9009 43.8023 31.2879 44.2796 31.2879H46.1865V33.2543H41.5083C41.031 33.2543 40.644 33.6412 40.644 34.1185V39.6609C40.644 40.1382 41.031 40.5252 41.5083 40.5252H49.822C50.2993 40.5252 50.6863 40.1382 50.6863 39.6609V34.1185C50.6863 33.6412 50.2993 33.2543 49.822 33.2543H47.9151V31.2879H49.822C50.2993 31.2879 50.6863 30.9009 50.6863 30.4236V26.7288C50.6863 26.2515 50.2993 25.8645 49.822 25.8645ZM48.9577 38.7967H42.3726V34.9828H48.9577V38.7967ZM48.9577 29.5594H45.1438V27.593H48.9577V29.5594Z" fill="white"/>
<path d="M49.2114 14.1088L45.2039 18.1164L43.0437 15.9563C42.7062 15.6188 42.1589 15.6188 41.8215 15.9563C41.484 16.2938 41.484 16.8411 41.8215 17.1785L44.5928 19.9497C44.7615 20.1184 44.9827 20.2028 45.2039 20.2028C45.425 20.2028 45.6462 20.1185 45.815 19.9497L50.4337 15.3309C50.7712 14.9934 50.7712 14.4462 50.4337 14.1088C50.096 13.7714 49.5488 13.7714 49.2114 14.1088Z" fill="white"/>
<path d="M41.1962 20.5754C40.9815 20.3609 40.6701 20.2744 40.3755 20.3481L35.1501 21.6544C34.687 21.7701 34.4055 22.2394 34.5213 22.7024C34.637 23.1656 35.1062 23.4471 35.5693 23.3313L37.7676 22.7817L24.9701 35.5793C24.0866 36.4628 22.9117 36.9494 21.6621 36.9494H14.5563C14.1674 35.3608 12.7323 34.1783 11.0256 34.1783C9.02093 34.1783 7.39014 35.8091 7.39014 37.8137C7.39014 39.8183 9.02093 41.4491 11.0256 41.4491C12.7324 41.4491 14.1674 40.2666 14.5563 38.678H21.6621C23.3735 38.678 24.9823 38.0116 26.1924 36.8015L38.9898 24.0039L38.4403 26.2022C38.3245 26.6652 38.606 27.1345 39.0691 27.2503C39.1394 27.2679 39.2099 27.2763 39.2794 27.2763C39.6666 27.2763 40.019 27.0142 40.1172 26.6214L41.4235 21.396C41.4971 21.1016 41.4108 20.7901 41.1962 20.5754ZM11.0256 39.7206C9.97404 39.7206 9.11865 38.8652 9.11865 37.8137C9.11865 36.7622 9.97404 35.9068 11.0256 35.9068C12.0771 35.9068 12.9324 36.7622 12.9324 37.8137C12.9324 38.8652 12.0771 39.7206 11.0256 39.7206Z" fill="white"/>
<path d="M29.4403 24.8813C29.4403 24.404 29.0533 24.0171 28.576 24.0171H22.1099C21.6326 24.0171 21.2456 24.404 21.2456 24.8813C21.2456 25.3586 21.6326 25.7456 22.1099 25.7456H28.576C29.0533 25.7456 29.4403 25.3588 29.4403 24.8813Z" fill="white"/>
<path d="M37.8136 34.178H35.0425C34.5652 34.178 34.1782 34.5649 34.1782 35.0422C34.1782 35.5195 34.5652 35.9065 35.0425 35.9065H37.8136C38.2909 35.9065 38.6779 35.5195 38.6779 35.0422C38.6779 34.5649 38.2909 34.178 37.8136 34.178Z" fill="white"/>
<path d="M37.8133 37.873H31.3472C30.8699 37.873 30.4829 38.26 30.4829 38.7373C30.4829 39.2146 30.8699 39.6016 31.3472 39.6016H37.8133C38.2906 39.6016 38.6776 39.2146 38.6776 38.7373C38.6776 38.26 38.2906 37.873 37.8133 37.873Z" fill="white"/>
<path d="M22.1099 27.7122C21.6326 27.7122 21.2456 28.0991 21.2456 28.5764C21.2456 29.0537 21.6326 29.4407 22.1099 29.4407H24.881C25.3583 29.4407 25.7453 29.0537 25.7453 28.5764C25.7453 28.0991 25.3583 27.7122 24.881 27.7122H22.1099Z" fill="white"/>
</svg>
