<svg width="22" height="22" viewBox="0 0 22 22" fill="none" xmlns="http://www.w3.org/2000/svg">
<g clip-path="url(#clip0)">
<path d="M19.5825 13.1786L19.5706 13.1675C19.3828 12.9938 18.8074 12.4327 18.6134 12.1876C18.3856 11.8816 18.4382 11.6812 18.6089 11.3808C18.8245 11.0012 19.2568 10.419 19.7141 9.80249C21.1791 7.82845 22.1249 6.46186 21.9302 5.49115L21.8253 4.97267L16.4151 4.97502C16.3961 5.02615 16.1138 6.26879 14.9224 8.38477C14.0585 9.91904 13.4919 10.401 13.2923 10.4861L13.2614 10.4767C13.1965 10.3963 13.083 10.1794 13.0363 9.62019C12.9877 9.03443 13.0308 8.32524 13.0726 7.63942C13.1214 6.83521 13.1636 6.14065 13.0627 5.64369L12.8984 4.83409C12.6998 4.80231 11.9729 4.52129 9.94745 4.49993C8.19395 4.48193 7.67883 4.73571 7.42589 4.95938L6.58917 5.69919L7.64677 6.05572C8.04927 6.19143 8.18288 6.34801 8.29248 7.12413C8.36398 7.63 8.40141 8.48013 8.3242 9.2391C8.21326 10.3274 7.94722 10.5298 7.93346 10.5406C7.88763 10.525 7.49907 10.3546 6.82449 8.92563C6.35653 7.93457 5.94632 6.76222 5.64654 5.90621C5.30346 4.92592 5.36523 5.13462 5.19117 4.67147L-0.0429688 4.6713L0.295746 5.54917C1.70784 9.21253 3.00345 12.0734 4.73731 14.1281C6.65295 16.3983 9.03369 17.587 12.2406 17.587H12.8851V16.9412C12.8851 16.3374 12.935 15.9027 13.0419 15.5731C13.1072 15.3723 13.1939 15.2063 13.2851 15.0322C13.4204 14.7759 13.5526 14.6661 13.6248 14.6498C13.6903 14.6348 13.8054 14.6829 13.933 14.7783C14.2992 15.0519 14.5899 15.4115 14.8978 15.7922C15.3419 16.3416 15.8011 16.9096 16.5297 17.2814C16.9279 17.4846 17.6577 17.5872 18.0593 17.5872C18.1656 17.5872 21.9524 17.587 21.9571 17.587L21.9294 16.9146C21.8881 15.9093 21.0984 14.6522 19.5825 13.1786ZM18.0843 16.2954H18.0739C17.797 16.2999 17.2684 16.209 17.1147 16.1306C16.6303 15.8834 16.2917 15.4644 15.8995 14.9794C15.5552 14.5534 15.1992 14.113 14.7036 13.7428C14.3027 13.4433 13.9387 13.3557 13.6497 13.3557C13.5342 13.3557 13.4304 13.3697 13.3415 13.3898C13.006 13.4655 12.5261 13.7073 12.1446 14.4303C12.037 14.636 11.915 14.8689 11.8161 15.1737C11.7125 15.4925 11.6481 15.8469 11.6174 16.2779C9.2007 16.1403 7.31494 15.1824 5.72174 13.2943C4.24049 11.5387 3.07512 9.08321 1.84095 5.96238C1.93024 5.96238 4.16781 5.96272 4.2999 5.96272C4.34036 6.07657 4.384 6.20136 4.43032 6.33354C4.75343 7.25699 5.19604 8.5215 5.71754 9.59984C6.46429 11.144 7.14625 11.8327 7.92859 11.8327C8.31917 11.8327 8.66947 11.6669 8.94155 11.3529C9.32944 10.9054 9.55469 10.1668 9.63022 9.09464C9.68981 8.24923 9.63442 7.40717 9.56896 6.94318C9.51491 6.56142 9.43787 6.16066 9.24988 5.8016C10.051 5.76545 11.1237 5.82263 11.8033 5.92034C11.8651 6.25736 11.8248 6.9198 11.7859 7.56072C11.6917 9.10894 11.5945 10.7066 12.4125 11.4541C12.5563 11.5857 12.7089 11.6561 12.7132 11.659L13.1295 11.787C13.2901 11.7373 14.2205 12.2103 15.9822 9.12979C16.5467 8.14277 17.0722 7.0054 17.3552 6.26257C18.0115 6.26123 20.2474 6.26375 20.5101 6.26409C20.1379 7.08461 19.2561 8.25494 18.6797 9.03174C18.1772 9.70882 17.7433 10.2936 17.4887 10.7416C17.0157 11.5739 17.0952 12.3157 17.5878 12.9701L17.5956 12.9802C17.8705 13.3308 18.5494 13.98 18.6903 14.1108C19.7104 15.1032 20.2021 15.8161 20.436 16.2952H18.0843V16.2954Z" fill="#1C0B05"/>
</g>
<defs>
<clipPath id="clip0">
<rect width="22" height="22" fill="white"/>
</clipPath>
</defs>
</svg>
