<svg width="59" height="51" viewBox="0 0 59 51" fill="none" xmlns="http://www.w3.org/2000/svg">
<path d="M57.212 6.04204C58.198 6.04204 59 5.24001 59 4.25407V2.40663C59 1.42068 58.198 0.618652 57.212 0.618652H1.78798C0.802031 0.618652 0 1.42068 0 2.40663V4.25407C0 5.24001 0.802031 6.04204 1.78798 6.04204H1.84744V41.263H0.864258C0.386957 41.263 0 41.6499 0 42.1272C0 42.6045 0.386957 42.9915 0.864258 42.9915H28.6357V45.0999C27.5631 45.4617 26.7883 46.4765 26.7883 47.6697C26.7883 49.1649 28.0048 50.3814 29.5 50.3814C30.9952 50.3814 32.2117 49.1648 32.2117 47.6697C32.2117 46.4766 31.4369 45.4618 30.3643 45.0999V42.9915H58.1357C58.613 42.9915 59 42.6045 59 42.1272C59 41.6499 58.613 41.263 58.1357 41.263H57.1526V6.04204H57.212ZM29.5 48.6527C28.9578 48.6527 28.5168 48.2116 28.5168 47.6695C28.5168 47.1275 28.9579 46.6864 29.5 46.6864C30.0421 46.6864 30.4832 47.1275 30.4832 47.6695C30.4832 48.2116 30.0422 48.6527 29.5 48.6527ZM55.424 41.263H3.57595V6.04204H50.7458C51.2231 6.04204 51.61 5.65509 51.61 5.17778C51.61 4.70048 51.2231 4.31353 50.7458 4.31353H1.78798C1.75513 4.31353 1.72852 4.28691 1.72852 4.25407V2.40663C1.72852 2.37379 1.75513 2.34717 1.78798 2.34717H57.212C57.2449 2.34717 57.2715 2.37379 57.2715 2.40663V4.25407C57.2715 4.28691 57.2449 4.31353 57.212 4.31353H54.441C53.9637 4.31353 53.5767 4.70048 53.5767 5.17778C53.5767 5.65509 53.9637 6.04204 54.441 6.04204H55.424V41.263Z" fill="#737373"/>
<path d="M9.17773 25.4405H11.0248C11.5021 25.4405 11.8891 25.0535 11.8891 24.5762C11.8891 24.0989 11.5021 23.712 11.0248 23.712H10.042V21.7456H17.5509V23.712H14.7199C14.2426 23.712 13.8557 24.0989 13.8557 24.5762C13.8557 25.0535 14.2426 25.4405 14.7199 25.4405H18.415C18.8923 25.4405 19.2793 25.0535 19.2793 24.5762V20.8813C19.2793 20.404 18.8923 20.0171 18.415 20.0171H14.6606V18.0507H28.5761C29.0534 18.0507 29.4403 17.6638 29.4403 17.1865V11.644C29.4403 11.1667 29.0534 10.7798 28.5761 10.7798H9.17773C8.70043 10.7798 8.31348 11.1667 8.31348 11.644V17.1865C8.31348 17.6638 8.70043 18.0507 9.17773 18.0507H12.9322V20.0171H9.17773C8.70043 20.0171 8.31348 20.404 8.31348 20.8813V24.5762C8.31348 25.0535 8.70043 25.4405 9.17773 25.4405ZM10.042 12.5082H27.7119V16.3221H10.042V12.5082Z" fill="#737373"/>
<path d="M49.822 21.8643H44.2796C43.8023 21.8643 43.4153 22.2512 43.4153 22.7285V26.4234C43.4153 26.9007 43.8023 27.2876 44.2796 27.2876H46.1865V29.254H41.5083C41.031 29.254 40.644 29.641 40.644 30.1183V35.6607C40.644 36.138 41.031 36.525 41.5083 36.525H49.822C50.2993 36.525 50.6863 36.138 50.6863 35.6607V30.1183C50.6863 29.641 50.2993 29.254 49.822 29.254H47.9151V27.2876H49.822C50.2993 27.2876 50.6863 26.9007 50.6863 26.4234V22.7285C50.6863 22.2512 50.2993 21.8643 49.822 21.8643ZM48.9577 34.7964H42.3726V30.9825H48.9577V34.7964ZM48.9577 25.5591H45.1438V23.5928H48.9577V25.5591Z" fill="#737373"/>
<path d="M49.2114 10.109L45.2039 14.1166L43.0437 11.9566C42.7062 11.619 42.1589 11.619 41.8215 11.9566C41.484 12.2941 41.484 12.8413 41.8215 13.1787L44.5928 15.9499C44.7615 16.1186 44.9827 16.2031 45.2039 16.2031C45.425 16.2031 45.6462 16.1187 45.815 15.9499L50.4337 11.3312C50.7712 10.9937 50.7712 10.4464 50.4337 10.109C50.096 9.77161 49.5488 9.77161 49.2114 10.109Z" fill="#737373"/>
<path d="M41.1962 16.5754C40.9815 16.3609 40.6701 16.2744 40.3755 16.3481L35.1501 17.6544C34.687 17.7701 34.4055 18.2394 34.5213 18.7024C34.637 19.1656 35.1062 19.4471 35.5693 19.3313L37.7676 18.7817L24.9701 31.5793C24.0866 32.4628 22.9117 32.9494 21.6621 32.9494H14.5563C14.1674 31.3608 12.7323 30.1783 11.0256 30.1783C9.02093 30.1783 7.39014 31.8091 7.39014 33.8137C7.39014 35.8183 9.02093 37.4491 11.0256 37.4491C12.7324 37.4491 14.1674 36.2666 14.5563 34.678H21.6621C23.3735 34.678 24.9823 34.0116 26.1924 32.8015L38.9898 20.0039L38.4403 22.2022C38.3245 22.6652 38.606 23.1345 39.0691 23.2503C39.1394 23.2679 39.2099 23.2763 39.2794 23.2763C39.6666 23.2763 40.019 23.0142 40.1172 22.6214L41.4235 17.396C41.4971 17.1016 41.4108 16.7901 41.1962 16.5754ZM11.0256 35.7206C9.97404 35.7206 9.11865 34.8652 9.11865 33.8137C9.11865 32.7622 9.97404 31.9068 11.0256 31.9068C12.0771 31.9068 12.9324 32.7622 12.9324 33.8137C12.9324 34.8652 12.0771 35.7206 11.0256 35.7206Z" fill="#737373"/>
<path d="M29.4403 20.8813C29.4403 20.404 29.0533 20.0171 28.576 20.0171H22.1099C21.6326 20.0171 21.2456 20.404 21.2456 20.8813C21.2456 21.3586 21.6326 21.7456 22.1099 21.7456H28.576C29.0533 21.7456 29.4403 21.3588 29.4403 20.8813Z" fill="#737373"/>
<path d="M37.8136 30.1782H35.0425C34.5652 30.1782 34.1782 30.5652 34.1782 31.0425C34.1782 31.5198 34.5652 31.9067 35.0425 31.9067H37.8136C38.2909 31.9067 38.6779 31.5198 38.6779 31.0425C38.6779 30.5652 38.2909 30.1782 37.8136 30.1782Z" fill="#737373"/>
<path d="M37.8133 33.873H31.3472C30.8699 33.873 30.4829 34.26 30.4829 34.7373C30.4829 35.2146 30.8699 35.6016 31.3472 35.6016H37.8133C38.2906 35.6016 38.6776 35.2146 38.6776 34.7373C38.6776 34.26 38.2906 33.873 37.8133 33.873Z" fill="#737373"/>
<path d="M22.1099 23.7119C21.6326 23.7119 21.2456 24.0989 21.2456 24.5762C21.2456 25.0535 21.6326 25.4404 22.1099 25.4404H24.881C25.3583 25.4404 25.7453 25.0535 25.7453 24.5762C25.7453 24.0989 25.3583 23.7119 24.881 23.7119H22.1099Z" fill="#737373"/>
</svg>
