<svg width="54" height="54" viewBox="0 0 54 54" fill="none" xmlns="http://www.w3.org/2000/svg">
<path d="M32.5139 40.168H29.0714V24.0024C29.0714 23.5361 28.6939 23.1587 28.2276 23.1587H24.4134C23.9474 23.1587 23.5697 23.5361 23.5697 24.0024C23.5697 24.4688 23.9474 24.8462 24.4134 24.8462H27.3839V40.168H23.0625C22.5966 40.168 22.2188 40.5453 22.2188 41.0118C22.2188 41.4781 22.5966 41.8555 23.0625 41.8555H32.5139C32.9803 41.8555 33.3577 41.4781 33.3577 41.0118C33.3577 40.5453 32.9803 40.168 32.5139 40.168Z" fill="#E04A38"/>
<path d="M27 17.7188C28.398 17.7188 29.5312 16.5855 29.5312 15.1875C29.5312 13.7895 28.398 12.6562 27 12.6562C25.602 12.6562 24.4688 13.7895 24.4688 15.1875C24.4688 16.5855 25.602 17.7188 27 17.7188Z" fill="#E04A38"/>
<path d="M27 0C12.0883 0 0 12.0883 0 27C0 41.9117 12.0883 54 27 54C41.9117 54 54 41.9117 54 27C54 12.0883 41.9117 0 27 0ZM27 52.3125C13.0426 52.3125 1.6875 40.9574 1.6875 27C1.6875 13.0427 13.0426 1.6875 27 1.6875C40.9574 1.6875 52.3125 13.0427 52.3125 27C52.3125 40.9574 40.9574 52.3125 27 52.3125Z" fill="#E04A38"/>
</svg>
