<svg width="155" height="26" viewBox="0 0 155 26" fill="none" xmlns="http://www.w3.org/2000/svg">
<path d="M11.2928 25.415V3.3726H19.4341V0.585043H0V3.3726H8.14131V25.415H11.2928Z" fill="#1C0B05"/>
<path d="M39.9537 22.6274H27.4528V14.0927H39.3059V11.3395H27.4528V3.3726H39.9537V0.585043H24.3014V25.415H39.9537V22.6274Z" fill="#1C0B05"/>
<path d="M65.8308 25.415V0.585043H62.6793V11.3223H48.8128V0.585043H45.6614V25.415H48.8128V14.1099H62.6793V25.415H65.8308Z" fill="#1C0B05"/>
<path d="M75.3903 25.415V6.16016H75.6704L89.3793 25.415H92.4432V0.585043H89.3268V19.9087H89.0467L75.3377 0.585043H72.2738V25.415H75.3903Z" fill="#1C0B05"/>
<path d="M109.514 0C102.37 0 97.9058 5.00728 97.9058 12.9914C97.9058 20.9411 102.265 26 109.514 26C116.727 26 121.069 20.9239 121.069 12.9914C121.069 5.02449 116.692 0 109.514 0ZM109.514 2.85639C114.679 2.85639 117.83 6.77962 117.83 12.9914C117.83 19.1516 114.696 23.1436 109.514 23.1436C104.261 23.1436 101.145 19.1516 101.145 12.9914C101.145 6.77962 104.366 2.85639 109.514 2.85639Z" fill="#1C0B05"/>
<path d="M138.77 25.415V16.7426L141.799 13.456L150.921 25.415H155L143.97 11.3051L154.072 0.585043H150.115L139.05 12.6473H138.77V0.585043H135.618V25.415H138.77Z" fill="#1C0B05"/>
<ellipse cx="25.8749" cy="12.6404" rx="2.42033" ry="2.37872" fill="#FEBA03"/>
<ellipse cx="109.6" cy="12.6404" rx="2.42033" ry="2.37872" fill="#FEBA03"/>
<path d="M74.1338 3.08325L79.8709 11.1885L74.5837 11.2326L74.1338 3.08325Z" fill="#FEBA03"/>
<path d="M90.001 21.5406L84.2639 13.4354L89.5511 13.3913L90.001 21.5406Z" fill="#FEBA03"/>
<rect x="27.2188" y="11.1426" width="82.4706" height="2.99542" fill="#FEBA03"/>
<mask id="mask0" mask-type="alpha" maskUnits="userSpaceOnUse" x="0" y="0" width="155" height="26">
<path d="M11.2928 25.415V3.3726H19.4341V0.585043H0V3.3726H8.14131V25.415H11.2928Z" fill="black"/>
<path d="M39.9537 22.6274H27.4528V14.0927H39.3059V11.3395H27.4528V3.3726H39.9537V0.585043H24.3014V25.415H39.9537V22.6274Z" fill="black"/>
<path d="M65.8308 25.415V0.585043H62.6793V11.3223H48.8128V0.585043H45.6614V25.415H48.8128V14.1099H62.6793V25.415H65.8308Z" fill="black"/>
<path d="M75.3903 25.415V6.16016H75.6704L89.3793 25.415H92.4432V0.585043H89.3268V19.9087H89.0467L75.3377 0.585043H72.2738V25.415H75.3903Z" fill="black"/>
<path d="M109.514 0C102.37 0 97.9058 5.00728 97.9058 12.9914C97.9058 20.9411 102.265 26 109.514 26C116.727 26 121.069 20.9239 121.069 12.9914C121.069 5.02449 116.692 0 109.514 0ZM109.514 2.85639C114.679 2.85639 117.83 6.77962 117.83 12.9914C117.83 19.1516 114.696 23.1436 109.514 23.1436C104.261 23.1436 101.145 19.1516 101.145 12.9914C101.145 6.77962 104.366 2.85639 109.514 2.85639Z" fill="black"/>
<path d="M138.77 25.415V16.7426L141.799 13.456L150.921 25.415H155L143.97 11.3051L154.072 0.585043H150.115L139.05 12.6473H138.77V0.585043H135.618V25.415H138.77Z" fill="black"/>
</mask>
<g mask="url(#mask0)">
<rect x="128.009" y="-3.17163" width="35.8568" height="44.7551" fill="#1B1B1B"/>
</g>
</svg>
