<svg width="22" height="22" viewBox="0 0 22 22" fill="none" xmlns="http://www.w3.org/2000/svg">
<g clip-path="url(#clip0)">
<path d="M20.9205 12.9151C21.0359 12.2801 21.0943 11.6505 21.0943 11.0423C21.0943 9.67356 20.8253 8.34531 20.2945 7.09476C19.7658 5.84892 19.0391 4.75763 18.1347 3.85117C17.2308 2.94538 16.1417 2.21718 14.8973 1.68709C13.6493 1.15532 12.3237 0.885737 10.9572 0.885737C10.3511 0.885737 9.72271 0.94443 9.08808 1.06013C8.10097 0.370784 6.98848 0.0214844 5.77981 0.0214844C4.18006 0.0214844 2.79499 0.596475 1.66303 1.73048C0.531068 2.86432 -0.0429688 4.2521 -0.0429688 5.85514C-0.0429688 7.06718 0.305649 8.18185 0.993654 9.16988C0.878176 9.80507 0.819765 10.4346 0.819765 11.0425C0.819765 12.4118 1.08882 13.74 1.61956 14.9904C2.14844 16.2363 2.87505 17.3277 3.77941 18.234C4.68327 19.14 5.77259 19.868 7.01684 20.3983C8.26479 20.93 9.59044 21.1996 10.9569 21.1996C11.5626 21.1996 12.1909 21.1409 12.8259 21.0252C13.813 21.7146 14.9255 22.0639 16.1345 22.0639C17.734 22.0639 19.1191 21.4889 20.2512 20.3549C21.383 19.2207 21.9571 17.8329 21.9571 16.2302C21.9571 15.0188 21.6085 13.904 20.9205 12.9151ZM19.3392 19.4408C18.4454 20.3362 17.3972 20.7714 16.1345 20.7714C15.1541 20.7714 14.2913 20.4921 13.4967 19.9174C13.3166 19.7873 13.0998 19.7182 12.8806 19.7182C12.8155 19.7182 12.7502 19.7244 12.6855 19.7368C12.0956 19.8498 11.514 19.9072 10.9569 19.9072C9.76484 19.9072 8.60904 19.6722 7.52173 19.2089C6.43022 18.7439 5.47819 18.1086 4.69166 17.3203C3.90462 16.5316 3.2705 15.5775 2.80674 14.4847C2.34432 13.3951 2.10984 12.2371 2.10984 11.0425C2.10984 10.4833 2.1669 9.9006 2.27953 9.31081C2.33358 9.02794 2.26778 8.73144 2.09893 8.49734C1.52556 7.70238 1.24694 6.83813 1.24694 5.85514C1.24694 4.58979 1.68132 3.53954 2.57494 2.64434C3.46873 1.74915 4.5171 1.31391 5.77981 1.31391C6.75953 1.31391 7.62176 1.59308 8.41618 2.16706C8.6505 2.33658 8.94675 2.40251 9.22873 2.34869C9.81821 2.23551 10.3998 2.17816 10.9572 2.17816C12.1493 2.17816 13.3051 2.4131 14.3924 2.87643C15.4839 3.34143 16.4361 3.97696 17.2224 4.76503C18.0095 5.55377 18.6436 6.50783 19.1074 7.60063C19.57 8.69024 19.8043 9.8483 19.8043 11.0425C19.8043 11.6019 19.7472 12.1846 19.6346 12.7745C19.5805 13.0569 19.6467 13.3536 19.8157 13.5885C20.3885 14.3841 20.6672 15.2484 20.6672 16.2304C20.6672 17.4954 20.2328 18.5455 19.3392 19.4408Z" fill="#1C0B05"/>
<path d="M13.7395 10.4439C13.3489 10.1795 12.9199 9.93094 12.4642 9.70525C12.0157 9.48342 11.5933 9.29658 11.2084 9.14993C10.9153 9.03826 10.6711 8.89582 10.4823 8.72613C10.3421 8.60033 10.3232 8.50044 10.3232 8.41921C10.3232 8.25591 10.3727 8.16072 10.5058 8.06806C10.698 7.93436 11.0206 7.86356 11.4387 7.86356C11.8484 7.86356 12.222 7.94227 12.5483 8.09749C13.1823 8.39953 13.4031 8.45671 13.5886 8.45671C14.0673 8.45671 14.4749 8.21202 14.7367 7.76703C14.9405 7.41974 15.0437 7.06759 15.0437 6.72014C15.0437 6.28389 14.8549 5.89221 14.4972 5.58664C14.2091 5.34144 13.8441 5.16149 13.4115 5.05167C13.0498 4.96018 12.7012 4.89325 12.3746 4.85255C12.0478 4.81202 11.7329 4.7915 11.4387 4.7915C10.9093 4.7915 10.3987 4.8544 9.92083 4.97868C9.43239 5.10599 8.96712 5.30881 8.53827 5.58125C8.06897 5.87943 7.69165 6.29802 7.41638 6.82541C7.14531 7.3444 7.00784 7.94361 7.00784 8.60656C7.00784 9.19904 7.11997 9.74006 7.34102 10.2143C7.56459 10.6948 7.86789 11.0887 8.24253 11.385C8.56882 11.6431 8.93305 11.8779 9.32547 12.0829C9.6991 12.2783 10.0736 12.4563 10.4378 12.6116C10.7708 12.7541 11.08 12.9028 11.3563 13.0531C11.5713 13.1705 11.7374 13.3104 11.8638 13.4801C11.9629 13.6135 12.009 13.7564 12.009 13.9296C12.009 14.2207 11.9038 14.3334 11.7901 14.4116C11.5656 14.5662 11.2774 14.6414 10.9091 14.6414C10.6313 14.6414 10.3886 14.5949 10.1666 14.4992C9.88357 14.3773 9.73939 14.2692 9.66771 14.1992C9.48711 14.024 9.29912 13.8619 9.10895 13.7179C8.82395 13.502 8.53844 13.3927 8.26049 13.3927C7.95635 13.3927 7.5129 13.5013 7.12785 14.0196C6.86215 14.3772 6.72754 14.7512 6.72754 15.1316C6.72754 15.8564 7.19298 16.4914 8.11093 17.019C8.91291 17.4798 9.87517 17.7134 10.9714 17.7134C12.2351 17.7134 13.2798 17.369 14.0767 16.6896C14.9045 15.9841 15.3243 14.9871 15.3243 13.7266C15.3243 12.9889 15.1734 12.3281 14.8758 11.7625C14.5776 11.1965 14.1954 10.7528 13.7395 10.4439ZM13.2408 15.7052C12.6759 16.1869 11.9335 16.421 10.9714 16.421C10.1031 16.421 9.35669 16.2451 8.75261 15.8978C8.28533 15.6294 8.01728 15.35 8.01728 15.1316C8.01728 15.0356 8.06612 14.921 8.16246 14.7915C8.20241 14.7377 8.23296 14.7095 8.25109 14.6955C8.26955 14.7058 8.29624 14.7226 8.33115 14.749C8.47936 14.8612 8.6269 14.9885 8.76889 15.1264C8.98861 15.3408 9.27932 15.5239 9.65697 15.6866C10.0376 15.8507 10.4588 15.9338 10.9089 15.9338C11.538 15.9338 12.0803 15.7801 12.5206 15.4768C13.0297 15.1262 13.2989 14.5912 13.2989 13.9296C13.2989 13.4772 13.1643 13.0666 12.8983 12.7082C12.6613 12.3895 12.3499 12.1236 11.9726 11.9178C11.6602 11.7477 11.3143 11.5812 10.9437 11.4228C10.6098 11.2804 10.2661 11.1169 9.922 10.9371C9.60108 10.7693 9.305 10.5787 9.04181 10.3705C8.82361 10.198 8.64972 9.96827 8.50991 9.66791C8.36925 9.3657 8.29775 9.00866 8.29775 8.60656C8.29775 8.1545 8.38587 7.75677 8.55942 7.42445C8.73079 7.09601 8.94983 6.85014 9.22913 6.67271C9.54485 6.47208 9.88692 6.32291 10.2453 6.22957C10.6171 6.13287 11.0185 6.08393 11.4387 6.08393C11.6802 6.08393 11.9419 6.10108 12.2158 6.13506C12.4894 6.16919 12.7855 6.22637 13.0955 6.30474C13.3347 6.36546 13.5252 6.45509 13.6611 6.5708C13.7538 6.65001 13.7538 6.6939 13.7538 6.72014C13.7538 6.83416 13.7103 6.96584 13.625 7.11114C13.6153 7.12762 13.6069 7.1399 13.6 7.14881C13.5235 7.12073 13.3739 7.05968 13.1017 6.93002C12.6008 6.69188 12.0412 6.57113 11.4387 6.57113C10.7465 6.57113 10.1849 6.71761 9.76977 7.00671C9.28788 7.34222 9.03325 7.8306 9.03325 8.41921C9.03325 8.9044 9.23685 9.3435 9.62156 9.68876C9.92872 9.96457 10.3082 10.1898 10.7498 10.3579C11.0968 10.4901 11.4813 10.6605 11.8929 10.864C12.2964 11.0638 12.6747 11.2827 13.0169 11.5146C13.2952 11.7032 13.5368 11.9896 13.7348 12.3656C13.9335 12.7432 14.0343 13.2013 14.0343 13.7266C14.0343 14.603 13.7748 15.2501 13.2408 15.7052Z" fill="#1C0B05"/>
</g>
<defs>
<clipPath id="clip0">
<rect width="22" height="22" fill="white"/>
</clipPath>
</defs>
</svg>
